<?xml version="1.0" encoding="UTF-8"?>
<svg width="1200pt" height="1200pt" version="1.1" viewBox="0 0 1200 1200" xmlns="http://www.w3.org/2000/svg">
 <path d="m992.96 495.44v-173.51l-451.65 398.41-451.68-398.4v529.87c0 7.1875 2.9609 13.75 7.7109 18.48 4.6758 4.7773 11.27 7.7109 18.496 7.7109h602.44c11.535 20.496 25.938 39.543 42.93 56.539l3.9258 3.8398h-649.29c-23.781 0-45.398-9.7383-61.074-25.383-15.789-15.676-25.512-37.332-25.512-61.188v-540.22c0-23.781 9.7383-45.398 25.383-61.074 15.676-15.789 37.332-25.512 61.199-25.512h850.93c23.855 0 45.523 9.7383 61.188 25.398 15.676 15.66 25.398 37.32 25.398 61.188v203.09c-19.219-8.8438-39.473-15.309-60.395-19.246zm111.57 415.05-0.027344 0.042968c-40.875 40.863-97.344 66.176-159.65 66.176-62.305 0-118.77-25.312-159.72-66.246-40.863-40.875-66.176-97.344-66.176-159.65 0-62.305 25.312-118.77 66.176-159.65 40.945-40.934 97.414-66.246 159.72-66.246 62.305 0 118.77 25.312 159.65 66.176 40.934 40.945 66.246 97.414 66.246 159.72 0 20.594-8.4336 39.332-21.996 52.895-13.551 13.551-32.273 21.969-52.867 21.969-18.781 0-36-7.0156-49.152-18.512-5.3164 9.5234-11.891 18.27-19.547 25.922-21.16 21.133-50.258 34.188-82.332 34.188-32.133 0-61.27-13.055-82.332-34.113-21.062-21.16-34.113-50.246-34.113-82.348 0-32.09 13.055-61.172 34.113-82.262 21.062-21.133 50.203-34.188 82.332-34.188 29.098 0 55.73 10.758 76.168 28.461v-23.246h40.281v111.23c0 9.5117 3.9102 18.184 10.164 24.434 6.25 6.25 14.91 10.164 24.422 10.164 9.4961 0 18.172-3.9102 24.422-10.164 6.2656-6.2773 10.176-14.926 10.176-24.434 0-51.277-20.777-97.727-54.328-131.3-33.578-33.547-80.023-54.312-131.3-54.312-51.293 0-97.727 20.766-131.3 54.312-33.535 33.578-54.312 80.023-54.312 131.3s20.777 97.727 54.312 131.3c33.578 33.547 80.008 54.312 131.3 54.312 51.277 0 97.727-20.766 131.3-54.312l28.375 28.375zm-105.76-213.59c-13.777-13.734-32.855-22.254-53.914-22.254-21.047 0-40.109 8.5312-53.871 22.293-13.777 13.734-22.293 32.812-22.293 53.871 0 21.074 8.5195 40.152 22.254 53.914 13.805 13.734 32.867 22.266 53.914 22.266 21.062 0 40.141-8.5195 53.914-22.266 13.734-13.762 22.254-32.84 22.254-53.914 0-21.062-8.5195-40.141-22.254-53.914zm-55.305-411.51h-804.34l402.17 354.75z"/>
</svg>
