<svg xmlns="http://www.w3.org/2000/svg" width="806.54" height="196.605" viewBox="0 0 806.54 196.605">
  <g id="Group_37" data-name="Group 37" transform="translate(-930.36 -1810.466)">
    <g id="Group_25" data-name="Group 25" transform="translate(-117.667 1111.737)">
      <path id="Path_37" data-name="Path 37" d="M799.667,1792.413s-19.327,1.335-27.4,7.224-8.422,7.1-8.224,14.033,5.755,53.8-34.571,69.257-62.819-19.213-62.819-19.213-5.61,4.513-15.79,2.072c6.6-6.3,27.927-23.554,27.927-23.554l-15.96,8.8s.023-25.569-6.582-34.617a53.365,53.365,0,0,0,10.4,7.7l-41.689-55.232-8.02-18.512,20.471,26.33-20.471-33.654,6.486,4.943,16.07,17.05-17.873-25.425s-1.363-4.888,0-6.285c5.079,6.781,32.878,35.722,54.568,74.8,8.514,15.99,8.432,22.313,18.76,21.471s32.251-5.485,32.251-5.485,12.593-1.387,12.7-14.125.366-19.985,2.59-21.175a45.489,45.489,0,0,1-6.479-1.47s6.51-3.764,10.872-3.764c-1.951-4.006-.731-4.044-6-6.217,3.657-1.683,7.915,0,7.915,0s-2.663-8.086-5.2-8.41-1.11-.96-1.11-.96a35.817,35.817,0,0,1,11.888,5.672s1.366-5.218-2.914-8.494c4.664,1.607,9.379,6.674,9.379,6.674s-1.24-5.717-5.06-8.074c4.462,1.223,9.9,6.157,9.9,6.157s.7-7.512-3.173-10.02c8.075,4.847,11.743,7.386,11.381,11.938s-3.338,16.472,0,16.97c4.335.144,19.062-.946,21.044,0A24.512,24.512,0,0,1,799.667,1792.413Z" transform="translate(432 -1033.065)" fill="#fff" stroke="#fff" stroke-width="2"/>
      <path id="Path_38" data-name="Path 38" d="M992.211,2463.089l9.434,25.222a4.809,4.809,0,0,1-5.952,1.17,10.657,10.657,0,0,1-4.832-5.463s-1.731,2.863,0,5.463,6.958,3.885,8.381,3.673a14.5,14.5,0,0,0,3.917-1.816,25.173,25.173,0,0,1,0,7.595c-.7,3.133-3.372,7.722-2.15,9.442s5.439,1.629,5.439,1.629a3.656,3.656,0,0,1-2.5-4.138,29.085,29.085,0,0,1,2.5-6.933s-.13,6.72,1.3,7.379a2.353,2.353,0,0,0,2.331,0,3.858,3.858,0,0,1,1.511,3.691c.907-2.033-.577-5.29-.577-5.29s-2.771-3.838-3.265-6.943-1.268-1.5-1.3-2.947,1.374-3.6-.934-8.686-7.91-20.487-7.91-20.487" transform="translate(125.28 -1615.675)" fill="#fff" stroke="#fff" stroke-width="2"/>
      <path id="Path_39" data-name="Path 39" d="M1048.531,2487.419s-2.658,2.195-2.79,4.51,21.334,23.539,23.041,26.746c.253,1.335,1.091,2.19-2.034,2.407s-6.186-1.018-6.652,0c2.649.791,2.979,2.077,4.966,2.025s5.052-1.883,6.13-1.377,4.484,3.971,5.874,3.874,4.313,0,4.313,0,2.882-.048,2.063-.916-4.5-.873-6.377-2.959c3.642.859,8.565,2.366,11.731,1.377s3.979-2.257,5.466-2.025c-2-1.563-3.046-1.349-4.934-.935s-5.791,2.94-10.553,0-22.448-22.024-22.448-22.024-1.078-1.887.637-2.915a21.251,21.251,0,0,0,1.6,2.129s5.239-8.918,10.222-9.918" transform="translate(82.228 -1634.497)" fill="#fff" stroke="#fff" stroke-width="2"/>
      <g id="Path_40" data-name="Path 40" transform="translate(-65.932 -1306.782)" fill="#0fd1ff">
        <path d="M 1238.4921875 2083.275634765625 L 1238.4921875 2080.900634765625 L 1238.4921875 2074.09716796875 L 1238.4921875 2073.639892578125 L 1238.838134765625 2073.3408203125 C 1239.055297851562 2073.15283203125 1244.208251953125 2068.719970703125 1248.625366210938 2066.902587890625 C 1252.531494140625 2065.295166015625 1260.894409179688 2062.81640625 1264.00244140625 2062.81640625 C 1264.405029296875 2062.81640625 1264.730712890625 2062.855712890625 1264.997802734375 2062.93701171875 C 1265.2080078125 2063.000732421875 1265.408081054688 2063.054443359375 1265.6015625 2063.106201171875 C 1266.393798828125 2063.318359375 1267.212890625 2063.537841796875 1267.765991210938 2064.328857421875 C 1268.262817382812 2065.039306640625 1268.44921875 2066.059326171875 1268.409545898438 2067.849609375 C 1268.37841796875 2069.253662109375 1267.617065429688 2070.359619140625 1266.265502929688 2070.964111328125 C 1265.403076171875 2071.349609375 1264.2939453125 2071.545166015625 1262.968627929688 2071.545166015625 C 1262.535400390625 2071.545166015625 1261.857666015625 2071.523193359375 1261.076538085938 2071.418701171875 L 1260.976928710938 2071.418701171875 L 1260.937133789062 2071.405517578125 L 1259.384033203125 2071.281494140625 L 1259.884521484375 2070.513916015625 C 1259.346435546875 2070.038330078125 1258.2578125 2069.330078125 1256.548583984375 2069.330078125 C 1256.29736328125 2069.330078125 1256.037231445312 2069.345458984375 1255.775268554688 2069.3759765625 C 1255.15185546875 2069.4482421875 1253.02978515625 2070.196044921875 1246.807861328125 2075.55908203125 C 1243.305541992188 2078.577880859375 1240.221801757812 2081.5859375 1240.191040039062 2081.615966796875 L 1238.4921875 2083.275634765625 Z" stroke="none"/>
        <path d="M 1239.4921875 2080.900634765625 C 1239.4921875 2080.900634765625 1251.851806640625 2068.8251953125 1255.659912109375 2068.382568359375 C 1259.43310546875 2067.946044921875 1261.159057617188 2070.389892578125 1261.140380859375 2070.41845703125 C 1261.242553710938 2070.4267578125 1267.330810546875 2071.39794921875 1267.409790039062 2067.827392578125 C 1267.489990234375 2064.210693359375 1266.591186523438 2064.466064453125 1264.707153320312 2063.893798828125 C 1262.82275390625 2063.32080078125 1253.323120117188 2066.05078125 1249.005859375 2067.827392578125 C 1244.6884765625 2069.603759765625 1239.4921875 2074.09716796875 1239.4921875 2074.09716796875 L 1239.4921875 2080.900634765625 M 1261.139892578125 2070.418701171875 C 1261.14013671875 2070.418701171875 1261.140502929688 2070.418212890625 1261.139404296875 2070.41845703125 C 1261.138793945312 2070.41845703125 1261.13916015625 2070.418701171875 1261.139892578125 2070.418701171875 M 1237.492309570312 2085.650146484375 L 1237.4921875 2073.1826171875 L 1238.183959960938 2072.584228515625 C 1238.40625 2072.39208984375 1243.678955078125 2067.8564453125 1248.244873046875 2065.977783203125 C 1252.317138671875 2064.302001953125 1260.72802734375 2061.81640625 1264.00244140625 2061.81640625 C 1264.505004882812 2061.81640625 1264.925659179688 2061.869873046875 1265.288452148438 2061.980224609375 C 1265.482788085938 2062.0390625 1265.674682617188 2062.090576171875 1265.860229492188 2062.140380859375 C 1266.734985351562 2062.37451171875 1267.823608398438 2062.666015625 1268.585571289062 2063.755859375 C 1269.215454101562 2064.65673828125 1269.4541015625 2065.84912109375 1269.409301757812 2067.871826171875 C 1269.369140625 2069.68359375 1268.397705078125 2071.106201171875 1266.673706054688 2071.876953125 C 1265.682006835938 2072.3203125 1264.435424804688 2072.545166015625 1262.968627929688 2072.545166015625 C 1262.517333984375 2072.545166015625 1261.818359375 2072.522705078125 1261.01123046875 2072.418701171875 L 1260.815307617188 2072.418701171875 L 1260.73681640625 2072.392578125 L 1257.628662109375 2072.144287109375 L 1258.518432617188 2070.77880859375 C 1258.048828125 2070.537109375 1257.3984375 2070.330078125 1256.548583984375 2070.330078125 C 1256.335815429688 2070.330078125 1256.114379882812 2070.34326171875 1255.890625 2070.369140625 C 1255.709838867188 2070.39013671875 1253.936279296875 2070.735595703125 1247.4677734375 2076.310546875 C 1243.988037109375 2079.309326171875 1240.92041015625 2082.30126953125 1240.889770507812 2082.331298828125 L 1237.492309570312 2085.650146484375 Z" stroke="none" fill="#fff"/>
      </g>
      <g id="Ellipse_7" data-name="Ellipse 7" transform="translate(1195.488 757.764)" fill="#fff" stroke="#000" stroke-width="1">
        <circle cx="2.483" cy="2.483" r="2.483" stroke="none"/>
        <circle cx="2.483" cy="2.483" r="1.983" fill="none"/>
      </g>
      <path id="Path_41" data-name="Path 41" d="M996.061,2269.532s-22.083,27.123-59.54,25.885c-12.912-.044-22.283-.719-22.283-.719" transform="translate(187.072 -1465.932)" fill="none" stroke="#000" stroke-linecap="round" stroke-width="4"/>
    </g>
    <path id="Path_58" data-name="Path 58" d="M33.3-24.8c0,7.1-4.1,10.7-9.7,10.8-6,.1-11.5-3.8-14.9-9.6a1.05,1.05,0,0,0-.9-.5l-2.6.3a.965.965,0,0,0-.9.8L2.4-8.3A1.678,1.678,0,0,0,3-6.9,31.949,31.949,0,0,0,24.4,1.2c8.1,0,22.9-2.4,22.9-27.2V-56.3h7.6c1.3,0,1.8-.5,1.8-1.7V-68.3A1.489,1.489,0,0,0,55-70H21.9a1.489,1.489,0,0,0-1.7,1.7V-58c0,1.2.5,1.7,1.8,1.7H33.3Zm99.2-.4a.908.908,0,0,0-.8-1l-3.3-.7a1.147,1.147,0,0,0-1.2.5c-3.2,7.8-12.1,12.9-24.3,12.9-10.7,0-22.5-6.5-22.5-22,0-15.8,12.8-21.3,22.7-21.3,11.7,0,20,5.7,22.7,15.7a1.287,1.287,0,0,0,1.7.8l4.4-1.6c.7-.3,1.1-.7,1.1-1.4V-58.7a3.513,3.513,0,0,0-1.2-2.3c-1.8-1.7-11.4-10.2-28.2-10.2C81-71.2,66.3-56.8,66.3-35.1c0,23.2,15.1,36.3,36.6,36.3,15.3,0,24.7-6.4,28.8-10.5a2.732,2.732,0,0,0,.8-2.2ZM181.1,0c10.6,0,18.9-3.1,25-8.3,7.8-6.4,11.8-16,11.8-26.9,0-11.2-4.1-21-12.5-27.3-5.9-4.7-13.9-7.5-24.3-7.5h-33a1.489,1.489,0,0,0-1.7,1.7V-58c0,1.2.5,1.7,1.8,1.7h8.1v42.6h-8.1c-1.3,0-1.8.5-1.8,1.7V-1.7A1.489,1.489,0,0,0,148.1,0ZM170.3-13.7V-56.3h11.3c6.8,0,12.4,1.6,16,5.5,3.6,3.2,6.2,8.4,6.2,15.7,0,7.1-2.6,12.4-6.3,15.6-3.7,4-9.1,5.8-16,5.8ZM288.4,0A1.488,1.488,0,0,0,290-1.7V-30c0-1.2-.5-1.7-1.9-1.7h-6c-1.4,0-1.7.5-2,1.5l-3.7,16.5h-24V-56.3h8.8c1.3,0,1.8-.5,1.8-1.7V-68.3a1.489,1.489,0,0,0-1.7-1.7H230.2a1.489,1.489,0,0,0-1.7,1.7V-58c0,1.2.5,1.7,1.8,1.7h8.1v42.6h-8.1c-1.3,0-1.8.5-1.8,1.7V-1.7A1.489,1.489,0,0,0,230.2,0Z" transform="translate(1132 1953)" fill="#fff"/>
    <path id="Path_57" data-name="Path 57" d="M55,0a1.261,1.261,0,0,0,1.3-1.3V-12.4A1.261,1.261,0,0,0,55-13.7H19.7c-.9,0-1.3-.4-1-1.4,1.2-5.1,6.8-7.4,14-10.2,10.9-4.4,24.1-9.9,24.1-25,0-14.6-13.4-20.8-25.6-20.8A37.849,37.849,0,0,0,5.7-61.4a1.782,1.782,0,0,0-.6,1.3V-44a.817.817,0,0,0,.8.9l3.5.4c.6.1.8-.1,1-.6,2.7-10.6,12.5-14.1,20.1-14.1,7,0,12.9,3,12.9,8.7,0,6.1-5.9,9.2-13.4,12.3C17.6-31.3,3.5-25.8,3.5-8.7a29.37,29.37,0,0,0,.8,7.6A1.364,1.364,0,0,0,5.6,0Zm49.4,1.2c21.1,0,31.8-16.3,31.8-36.2s-10.7-36.2-31.8-36.2C83.2-71.2,72.5-54.9,72.5-35S83.2,1.2,104.4,1.2Zm0-14.3C93.2-13.1,86-20.6,86-35s7.2-21.9,18.4-21.9c11.1,0,18.3,7.5,18.3,21.9S115.5-13.1,104.4-13.1ZM202.3,0a1.261,1.261,0,0,0,1.3-1.3V-12.4a1.261,1.261,0,0,0-1.3-1.3H167c-.9,0-1.3-.4-1-1.4,1.2-5.1,6.8-7.4,14-10.2,10.9-4.4,24.1-9.9,24.1-25,0-14.6-13.4-20.8-25.6-20.8A37.849,37.849,0,0,0,153-61.4a1.782,1.782,0,0,0-.6,1.3V-44a.817.817,0,0,0,.8.9l3.5.4c.6.1.8-.1,1-.6,2.7-10.6,12.5-14.1,20.1-14.1,7,0,12.9,3,12.9,8.7,0,6.1-5.9,9.2-13.4,12.3-12.4,5.1-26.5,10.6-26.5,27.7a29.37,29.37,0,0,0,.8,7.6A1.364,1.364,0,0,0,152.9,0Zm66.6-54.6a4.626,4.626,0,0,0,2-3.5V-68.3c0-1.2-.6-1.7-1.6-1.7H222.2a1.488,1.488,0,0,0-1.6,1.7V-47a1.049,1.049,0,0,0,1.1,1.1h4.4a.824.824,0,0,0,.8-.5l5.5-9.9h24.5L235.3-39.5c-.6.4-.6,1-.6,1.7v4.5c0,1,.5,1.4,1.5,1.3,3.4-.3,6.4-.4,9.3-.4,8.9.3,15,2.5,15,8.7,0,6.7-7,10.6-15.7,10.6a28.231,28.231,0,0,1-21-8.6,1.015,1.015,0,0,0-1-.3l-2.2.7a.792.792,0,0,0-.5.8L220-7.2a1.513,1.513,0,0,0,.7,1.4c5.6,4,14.5,6.8,23.7,6.9,14.7.3,29.5-6.1,29.5-24.3,0-10.5-7-15.7-17.9-17.5-1.3-.3-2.4-.4-3.9-.6Z" transform="translate(1463 1953)" fill="#0fd1fc"/>
  </g>
</svg>
